<!DOCTYPE svg PUBLIC "-//W3C//DTD SVG 20010904//EN" "http://www.w3.org/TR/2001/REC-SVG-20010904/DTD/svg10.dtd">
<svg version="1.0" xmlns="http://www.w3.org/2000/svg" width="500px" height="200px" viewBox="0 0 5000 2000" preserveAspectRatio="xMidYMid meet">
<g id="layer101" fill="#253a4c" stroke="none">
 <path d="M40 1618 c0 -13 -9 -29 -20 -36 -20 -12 -20 -23 -20 -601 0 -324 3 -596 6 -605 5 -14 53 -16 434 -16 381 0 429 2 434 16 3 9 6 281 6 605 0 578 0 589 -20 601 -11 7 -20 23 -20 35 0 16 -6 23 -20 23 -15 0 -20 -7 -20 -25 l0 -25 -354 0 -355 0 -3 23 c-4 32 -48 37 -48 5z"/>
 <path d="M4654 1459 c-68 -19 -89 -86 -51 -162 22 -43 23 -49 8 -54 -9 -3 -26 -15 -38 -26 l-23 -20 -24 22 c-15 15 -42 25 -70 28 -40 5 -48 2 -76 -25 -33 -34 -35 -46 -20 -160 11 -80 2 -112 -29 -112 -37 0 -53 35 -68 152 -8 62 -16 118 -18 124 -4 15 -196 27 -228 15 -14 -6 -28 -15 -32 -21 -5 -8 -12 -6 -25 5 -10 9 -37 19 -60 22 -33 5 -48 1 -71 -16 -29 -22 -31 -22 -50 -5 -10 9 -40 19 -66 21 -40 4 -55 0 -87 -22 l-39 -26 -23 22 c-13 13 -41 23 -68 26 -40 5 -48 2 -76 -25 -33 -34 -35 -46 -20 -160 11 -80 2 -112 -29 -112 -37 0 -53 35 -68 152 -8 62 -17 119 -19 126 -2 8 -23 12 -58 12 l-55 0 6 -31 6 -30 -38 25 c-146 99 -311 29 -309 -131 2 -108 89 -193 198 -193 170 0 180 176 13 230 -21 6 -44 9 -52 6 -24 -9 -17 -44 12 -58 68 -33 83 -112 20 -106 -70 7 -106 140 -52 193 34 35 89 34 144 -3 61 -41 72 -64 85 -166 l11 -91 42 -3 c26 -2 46 2 54 11 12 12 17 12 37 -1 32 -21 117 -11 145 17 24 24 26 57 13 184 -8 72 -8 77 11 77 31 0 43 -21 43 -77 0 -127 83 -212 207 -213 58 0 56 4 68 -118 8 -68 27 -92 75 -92 49 0 49 2 19 230 -16 118 -28 227 -29 243 0 33 19 35 48 4 17 -18 24 -44 33 -128 9 -81 16 -108 31 -121 24 -21 98 -25 98 -5 0 6 -7 59 -15 117 -18 134 -18 149 1 157 33 12 48 -23 63 -154 l16 -128 42 -3 c26 -2 46 2 54 11 12 12 17 12 37 -1 32 -21 117 -11 145 17 24 24 26 57 13 184 -8 72 -8 77 11 77 32 0 43 -21 43 -80 0 -62 24 -123 61 -157 45 -41 88 -52 203 -51 l108 0 -6 49 c-3 27 -9 73 -12 102 l-7 52 37 -35 c36 -34 38 -34 52 -16 8 11 14 23 14 27 0 4 -26 30 -57 58 l-57 51 -13 97 c-7 53 -21 110 -31 126 -33 57 -95 83 -158 66z m60 -91 c7 -13 16 -46 18 -75 l5 -51 -30 21 c-48 36 -70 90 -45 115 18 18 36 14 52 -10z m-946 -221 c19 -20 41 -114 42 -179 0 -28 -65 -24 -95 6 -44 44 -58 143 -25 176 26 26 52 25 78 -3z m960 0 c19 -20 41 -114 42 -179 0 -28 -65 -24 -95 6 -44 44 -58 143 -25 176 26 26 52 25 78 -3z"/>
 <path d="M1883 1445 c-13 -9 -28 -33 -34 -55 -11 -35 -9 -44 14 -92 14 -29 25 -52 24 -53 -1 0 -17 -8 -34 -17 -31 -16 -35 -16 -75 2 -56 25 -103 25 -128 0 -23 -23 -26 -81 -10 -194 6 -38 9 -70 7 -72 -2 -2 -25 48 -51 111 l-49 115 -37 0 -37 0 -13 -110 c-8 -60 -16 -110 -20 -110 -3 0 -18 51 -32 113 -23 95 -32 116 -58 140 -36 33 -87 36 -121 8 -19 -15 -24 -29 -24 -65 0 -38 5 -51 34 -80 18 -19 46 -40 60 -46 25 -10 29 -20 62 -188 l34 -177 52 -3 51 -3 11 78 c6 43 16 118 22 166 l12 88 72 -163 71 -163 53 -3 53 -3 -6 28 c-8 41 -34 275 -42 376 -6 74 -5 87 9 87 8 0 24 -8 36 -17 16 -15 23 -40 35 -130 7 -61 17 -116 21 -122 3 -6 24 -11 45 -11 57 0 61 15 44 149 -11 86 -12 116 -3 127 15 19 32 18 58 -3 18 -15 24 -37 35 -132 10 -90 17 -117 31 -127 24 -17 95 -19 95 -2 0 7 -7 68 -16 137 -12 93 -13 126 -5 129 28 9 71 56 81 88 10 28 10 41 -1 60 -16 32 -26 30 -34 -5 -3 -15 -19 -41 -35 -56 l-28 -27 -7 48 c-12 90 -27 128 -60 161 -29 29 -39 33 -87 33 -32 0 -62 -6 -75 -15z m91 -77 c7 -13 17 -47 20 -77 l7 -53 -31 22 c-43 31 -65 76 -51 106 13 30 36 31 55 2z m-675 -228 c10 -31 4 -39 -17 -18 -14 14 -16 48 -3 48 5 0 14 -13 20 -30z"/>
 <path d="M2510 1220 c0 -43 -31 -436 -35 -447 -13 -38 -59 10 -85 89 l-11 38 -30 -16 c-34 -17 -33 -25 7 -110 30 -64 62 -93 107 -101 100 -16 117 16 131 240 5 92 13 167 16 167 3 0 28 -62 55 -137 72 -206 88 -239 125 -258 60 -31 130 2 130 63 0 51 -28 92 -89 130 l-60 37 -62 163 -62 162 -68 0 c-63 0 -69 -2 -69 -20z m341 -432 c7 -14 8 -23 1 -30 -7 -7 -16 0 -26 20 -9 17 -16 33 -16 36 0 12 31 -8 41 -26z"/>
 <path d="M4027 782 c-23 -25 -21 -68 3 -92 27 -27 56 -25 86 6 20 19 24 31 19 52 -12 51 -75 71 -108 34z"/>
 </g>
<g id="layer102" fill="#425970" stroke="none">
 <path d="M12 1578 c-9 -9 -12 -156 -12 -599 0 -323 3 -594 6 -603 5 -14 53 -16 434 -16 381 0 429 2 434 16 3 9 6 280 6 603 0 443 -3 590 -12 599 -17 17 -839 17 -856 0z m182 -94 c12 -5 16 -20 16 -60 l0 -54 -60 0 -60 0 0 53 c0 30 3 57 7 60 8 9 76 9 97 1z m224 -56 l3 -58 -61 0 -60 0 0 53 c0 30 3 57 7 61 4 4 30 6 58 4 l50 -3 3 -57z m210 -1 l3 -58 -58 3 -58 3 -3 49 c-4 58 6 67 68 64 l45 -3 3 -58z m192 -722 l0 -75 -60 0 c-33 0 -60 3 -60 8 0 4 25 5 55 4 l55 -4 0 67 0 67 -55 -4 c-30 -1 -55 0 -55 5 0 4 27 7 60 7 l60 0 0 -75z"/>
 <path d="M4654 1459 c-68 -19 -89 -86 -51 -162 22 -43 23 -49 8 -54 -9 -3 -26 -15 -38 -26 l-23 -20 -24 22 c-15 15 -42 25 -70 28 -40 5 -48 2 -76 -25 -33 -34 -35 -46 -20 -160 11 -80 2 -112 -29 -112 -37 0 -53 35 -68 152 -8 62 -16 118 -18 124 -4 15 -196 27 -228 15 -14 -6 -28 -15 -32 -21 -5 -8 -12 -6 -25 5 -10 9 -37 19 -60 22 -33 5 -48 1 -71 -16 -29 -22 -31 -22 -50 -5 -10 9 -40 19 -66 21 -40 4 -55 0 -87 -22 l-39 -26 -23 22 c-13 13 -41 23 -68 26 -40 5 -48 2 -76 -25 -33 -34 -35 -46 -20 -160 11 -80 2 -112 -29 -112 -37 0 -53 35 -68 152 -8 62 -17 119 -19 126 -2 8 -23 12 -58 12 l-55 0 6 -31 6 -30 -38 25 c-146 99 -311 29 -309 -131 2 -108 89 -193 198 -193 170 0 180 176 13 230 -21 6 -44 9 -52 6 -24 -9 -17 -44 12 -58 68 -33 83 -112 20 -106 -70 7 -106 140 -52 193 34 35 89 34 144 -3 61 -41 72 -64 85 -166 l11 -91 42 -3 c26 -2 46 2 54 11 12 12 17 12 37 -1 32 -21 117 -11 145 17 24 24 26 57 13 184 -8 72 -8 77 11 77 31 0 43 -21 43 -77 0 -127 83 -212 207 -213 58 0 56 4 68 -118 8 -68 27 -92 75 -92 49 0 49 2 19 230 -16 118 -28 227 -29 243 0 33 19 35 48 4 17 -18 24 -44 33 -128 9 -81 16 -108 31 -121 24 -21 98 -25 98 -5 0 6 -7 59 -15 117 -18 134 -18 149 1 157 33 12 48 -23 63 -154 l16 -128 42 -3 c26 -2 46 2 54 11 12 12 17 12 37 -1 32 -21 117 -11 145 17 24 24 26 57 13 184 -8 72 -8 77 11 77 32 0 43 -21 43 -80 0 -62 24 -123 61 -157 45 -41 88 -52 203 -51 l108 0 -6 49 c-3 27 -9 73 -12 102 l-7 52 37 -35 c36 -34 38 -34 52 -16 8 11 14 23 14 27 0 4 -26 30 -57 58 l-57 51 -13 97 c-7 53 -21 110 -31 126 -33 57 -95 83 -158 66z m60 -91 c7 -13 16 -46 18 -75 l5 -51 -30 21 c-48 36 -70 90 -45 115 18 18 36 14 52 -10z m-946 -221 c19 -20 41 -114 42 -179 0 -28 -65 -24 -95 6 -44 44 -58 143 -25 176 26 26 52 25 78 -3z m960 0 c19 -20 41 -114 42 -179 0 -28 -65 -24 -95 6 -44 44 -58 143 -25 176 26 26 52 25 78 -3z"/>
 <path d="M1883 1445 c-13 -9 -28 -33 -34 -55 -11 -35 -9 -44 14 -92 14 -29 25 -52 24 -53 -1 0 -17 -8 -34 -17 -31 -16 -35 -16 -75 2 -56 25 -103 25 -128 0 -23 -23 -26 -81 -10 -194 6 -38 9 -70 7 -72 -2 -2 -25 48 -51 111 l-49 115 -37 0 -37 0 -13 -110 c-8 -60 -16 -110 -20 -110 -3 0 -18 51 -32 113 -23 95 -32 116 -58 140 -36 33 -87 36 -121 8 -19 -15 -24 -29 -24 -65 0 -38 5 -51 34 -80 18 -19 46 -40 60 -46 25 -10 29 -20 62 -188 l34 -177 52 -3 51 -3 11 78 c6 43 16 118 22 166 l12 88 72 -163 71 -163 53 -3 53 -3 -6 28 c-8 41 -34 275 -42 376 -6 74 -5 87 9 87 8 0 24 -8 36 -17 16 -15 23 -40 35 -130 7 -61 17 -116 21 -122 3 -6 24 -11 45 -11 57 0 61 15 44 149 -11 86 -12 116 -3 127 15 19 32 18 58 -3 18 -15 24 -37 35 -132 10 -90 17 -117 31 -127 24 -17 95 -19 95 -2 0 7 -7 68 -16 137 -12 93 -13 126 -5 129 28 9 71 56 81 88 10 28 10 41 -1 60 -16 32 -26 30 -34 -5 -3 -15 -19 -41 -35 -56 l-28 -27 -7 48 c-12 90 -27 128 -60 161 -29 29 -39 33 -87 33 -32 0 -62 -6 -75 -15z m91 -77 c7 -13 17 -47 20 -77 l7 -53 -31 22 c-43 31 -65 76 -51 106 13 30 36 31 55 2z m-675 -228 c10 -31 4 -39 -17 -18 -14 14 -16 48 -3 48 5 0 14 -13 20 -30z"/>
 <path d="M2510 1220 c0 -43 -31 -436 -35 -447 -13 -38 -59 10 -85 89 l-11 38 -30 -16 c-34 -17 -33 -25 7 -110 30 -64 62 -93 107 -101 100 -16 117 16 131 240 5 92 13 167 16 167 3 0 28 -62 55 -137 72 -206 88 -239 125 -258 60 -31 130 2 130 63 0 51 -28 92 -89 130 l-60 37 -62 163 -62 162 -68 0 c-63 0 -69 -2 -69 -20z m341 -432 c7 -14 8 -23 1 -30 -7 -7 -16 0 -26 20 -9 17 -16 33 -16 36 0 12 31 -8 41 -26z"/>
 <path d="M4027 782 c-23 -25 -21 -68 3 -92 27 -27 56 -25 86 6 20 19 24 31 19 52 -12 51 -75 71 -108 34z"/>
 </g>
<g id="layer103" fill="#05c7c9" stroke="none">
 <path d="M4654 1459 c-68 -19 -89 -86 -51 -162 22 -43 23 -49 8 -54 -9 -3 -26 -15 -38 -26 l-23 -20 -24 22 c-15 15 -42 25 -70 28 -40 5 -48 2 -76 -25 -33 -34 -35 -46 -20 -160 11 -80 2 -112 -29 -112 -37 0 -53 35 -68 152 -8 62 -16 118 -18 124 -4 15 -196 27 -228 15 -14 -6 -28 -15 -32 -21 -5 -8 -12 -6 -25 5 -10 9 -37 19 -60 22 -33 5 -48 1 -71 -16 -29 -22 -31 -22 -50 -5 -10 9 -40 19 -66 21 -40 4 -55 0 -87 -22 l-39 -26 -23 22 c-13 13 -41 23 -68 26 -40 5 -48 2 -76 -25 -33 -34 -35 -46 -20 -160 11 -80 2 -112 -29 -112 -37 0 -53 35 -68 152 -8 62 -17 119 -19 126 -2 8 -23 12 -58 12 l-55 0 6 -31 6 -30 -38 25 c-146 99 -311 29 -309 -131 2 -108 89 -193 198 -193 170 0 180 176 13 230 -21 6 -44 9 -52 6 -24 -9 -17 -44 12 -58 68 -33 83 -112 20 -106 -70 7 -106 140 -52 193 34 35 89 34 144 -3 61 -41 72 -64 85 -166 l11 -91 42 -3 c26 -2 46 2 54 11 12 12 17 12 37 -1 32 -21 117 -11 145 17 24 24 26 57 13 184 -8 72 -8 77 11 77 31 0 43 -21 43 -77 0 -127 83 -212 207 -213 58 0 56 4 68 -118 8 -68 27 -92 75 -92 49 0 49 2 19 230 -16 118 -28 227 -29 243 0 33 19 35 48 4 17 -18 24 -44 33 -128 9 -81 16 -108 31 -121 24 -21 98 -25 98 -5 0 6 -7 59 -15 117 -18 134 -18 149 1 157 33 12 48 -23 63 -154 l16 -128 42 -3 c26 -2 46 2 54 11 12 12 17 12 37 -1 32 -21 117 -11 145 17 24 24 26 57 13 184 -8 72 -8 77 11 77 32 0 43 -21 43 -80 0 -62 24 -123 61 -157 45 -41 88 -52 203 -51 l108 0 -6 49 c-3 27 -9 73 -12 102 l-7 52 37 -35 c36 -34 38 -34 52 -16 8 11 14 23 14 27 0 4 -26 30 -57 58 l-57 51 -13 97 c-7 53 -21 110 -31 126 -33 57 -95 83 -158 66z m60 -91 c7 -13 16 -46 18 -75 l5 -51 -30 21 c-48 36 -70 90 -45 115 18 18 36 14 52 -10z m-946 -221 c19 -20 41 -114 42 -179 0 -28 -65 -24 -95 6 -44 44 -58 143 -25 176 26 26 52 25 78 -3z m960 0 c19 -20 41 -114 42 -179 0 -28 -65 -24 -95 6 -44 44 -58 143 -25 176 26 26 52 25 78 -3z"/>
 <path d="M1883 1445 c-13 -9 -28 -33 -34 -55 -11 -35 -9 -44 14 -92 14 -29 25 -52 24 -53 -1 0 -17 -8 -34 -17 -31 -16 -35 -16 -75 2 -56 25 -103 25 -128 0 -23 -23 -26 -81 -10 -194 6 -38 9 -70 7 -72 -2 -2 -25 48 -51 111 l-49 115 -37 0 -37 0 -13 -110 c-8 -60 -16 -110 -20 -110 -3 0 -18 51 -32 113 -23 95 -32 116 -58 140 -36 33 -87 36 -121 8 -19 -15 -24 -29 -24 -65 0 -38 5 -51 34 -80 18 -19 46 -40 60 -46 25 -10 29 -20 62 -188 l34 -177 52 -3 51 -3 11 78 c6 43 16 118 22 166 l12 88 72 -163 71 -163 53 -3 53 -3 -6 28 c-8 41 -34 275 -42 376 -6 74 -5 87 9 87 8 0 24 -8 36 -17 16 -15 23 -40 35 -130 7 -61 17 -116 21 -122 3 -6 24 -11 45 -11 57 0 61 15 44 149 -11 86 -12 116 -3 127 15 19 32 18 58 -3 18 -15 24 -37 35 -132 10 -90 17 -117 31 -127 24 -17 95 -19 95 -2 0 7 -7 68 -16 137 -12 93 -13 126 -5 129 28 9 71 56 81 88 10 28 10 41 -1 60 -16 32 -26 30 -34 -5 -3 -15 -19 -41 -35 -56 l-28 -27 -7 48 c-12 90 -27 128 -60 161 -29 29 -39 33 -87 33 -32 0 -62 -6 -75 -15z m91 -77 c7 -13 17 -47 20 -77 l7 -53 -31 22 c-43 31 -65 76 -51 106 13 30 36 31 55 2z m-675 -228 c10 -31 4 -39 -17 -18 -14 14 -16 48 -3 48 5 0 14 -13 20 -30z"/>
 <path d="M792 1253 c4 -51 33 -54 33 -3 0 26 -5 36 -18 38 -16 3 -18 -2 -15 -35z"/>
 <path d="M89 1263 c-4 -33 -6 -631 -1 -715 l5 -108 268 0 269 0 5 23 c3 12 4 198 3 412 l-3 390 -272 3 c-150 1 -273 -1 -274 -5z m51 -123 c0 -5 -7 -10 -15 -10 -8 0 -15 5 -15 10 0 6 7 10 15 10 8 0 15 -4 15 -10z m80 0 c0 -5 -6 -10 -14 -10 -8 0 -18 5 -21 10 -3 6 3 10 14 10 12 0 21 -4 21 -10z m80 0 c0 -5 -6 -10 -14 -10 -8 0 -18 5 -21 10 -3 6 3 10 14 10 12 0 21 -4 21 -10z m72 -2 c-9 -9 -15 -9 -24 0 -9 9 -7 12 12 12 19 0 21 -3 12 -12z m80 0 c-9 -9 -15 -9 -24 0 -9 9 -7 12 12 12 19 0 21 -3 12 -12z m80 0 c-9 -9 -15 -9 -24 0 -9 9 -7 12 12 12 19 0 21 -3 12 -12z m80 0 c-9 -9 -15 -9 -24 0 -9 9 -7 12 12 12 19 0 21 -3 12 -12z m-434 -128 c1 -14 -2 -31 -7 -39 -14 -22 -31 -3 -31 35 0 28 4 35 18 32 10 -2 18 -14 20 -28z m80 -7 c-2 -26 -8 -38 -18 -38 -10 0 -16 12 -18 38 -3 32 0 37 18 37 18 0 21 -5 18 -37z m90 7 c1 -14 -2 -31 -7 -39 -14 -22 -31 -3 -31 35 0 28 4 35 18 32 10 -2 18 -14 20 -28z m80 -7 c-2 -26 -8 -38 -18 -38 -10 0 -16 12 -18 38 -3 32 0 37 18 37 18 0 21 -5 18 -37z m70 0 c-4 -43 -25 -55 -34 -19 -8 33 1 56 21 56 13 0 15 -9 13 -37z m92 10 c0 -16 -4 -34 -9 -42 -14 -22 -31 -3 -31 35 0 27 4 34 20 34 15 0 20 -7 20 -27z m-420 -83 c0 -11 -4 -20 -9 -20 -14 0 -23 18 -16 30 10 17 25 11 25 -10z m86 9 c10 -17 -13 -36 -27 -22 -12 12 -4 33 11 33 5 0 12 -5 16 -11z m84 -9 c0 -11 -4 -20 -9 -20 -14 0 -23 18 -16 30 10 17 25 11 25 -10z m86 9 c10 -17 -13 -36 -27 -22 -12 12 -4 33 11 33 5 0 12 -5 16 -11z m69 -9 c0 -7 -6 -15 -12 -17 -8 -3 -13 4 -13 17 0 13 5 20 13 18 6 -3 12 -11 12 -18z m89 12 c8 -13 -11 -35 -23 -28 -16 10 -14 36 3 36 8 0 17 -4 20 -8z m-449 -202 c-3 -5 -13 -10 -21 -10 -8 0 -14 5 -14 10 0 6 9 10 21 10 11 0 17 -4 14 -10z m60 0 c-3 -5 -13 -10 -21 -10 -8 0 -14 5 -14 10 0 6 9 10 21 10 11 0 17 -4 14 -10z m60 0 c-3 -5 -13 -10 -21 -10 -8 0 -14 5 -14 10 0 6 9 10 21 10 11 0 17 -4 14 -10z m65 0 c0 -5 -9 -10 -20 -10 -11 0 -20 5 -20 10 0 6 9 10 20 10 11 0 20 -4 20 -10z m60 0 c0 -5 -9 -10 -20 -10 -11 0 -20 5 -20 10 0 6 9 10 20 10 11 0 20 -4 20 -10z m60 0 c0 -5 -6 -10 -14 -10 -8 0 -18 5 -21 10 -3 6 3 10 14 10 12 0 21 -4 21 -10z m60 0 c0 -5 -6 -10 -14 -10 -8 0 -18 5 -21 10 -3 6 3 10 14 10 12 0 21 -4 21 -10z m60 0 c0 -5 -7 -10 -15 -10 -8 0 -15 5 -15 10 0 6 7 10 15 10 8 0 15 -4 15 -10z m60 0 c0 -5 -7 -10 -15 -10 -8 0 -15 5 -15 10 0 6 7 10 15 10 8 0 15 -4 15 -10z m-92 -219 c3 -8 -1 -12 -9 -9 -7 2 -15 10 -17 17 -3 8 1 12 9 9 7 -2 15 -10 17 -17z m-156 -3 c-9 -9 -15 -9 -24 0 -9 9 -7 12 12 12 19 0 21 -3 12 -12z m80 0 c-9 -9 -15 -9 -24 0 -9 9 -7 12 12 12 19 0 21 -3 12 -12z m160 0 c-9 -9 -15 -9 -24 0 -9 9 -7 12 12 12 19 0 21 -3 12 -12z"/>
 <path d="M2510 1220 c0 -43 -31 -436 -35 -447 -13 -38 -59 10 -85 89 l-11 38 -30 -16 c-34 -17 -33 -25 7 -110 30 -64 62 -93 107 -101 100 -16 117 16 131 240 5 92 13 167 16 167 3 0 28 -62 55 -137 72 -206 88 -239 125 -258 60 -31 130 2 130 63 0 51 -28 92 -89 130 l-60 37 -62 163 -62 162 -68 0 c-63 0 -69 -2 -69 -20z m341 -432 c7 -14 8 -23 1 -30 -7 -7 -16 0 -26 20 -9 17 -16 33 -16 36 0 12 31 -8 41 -26z"/>
 <path d="M707 1124 c-15 -15 8 -24 59 -24 41 0 54 4 54 15 0 11 -13 15 -53 15 -30 0 -57 -3 -60 -6z"/>
 <path d="M744 1049 c-10 -17 13 -36 27 -22 12 12 4 33 -11 33 -5 0 -12 -5 -16 -11z"/>
 <path d="M714 989 c-3 -6 -1 -16 5 -22 9 -9 14 -8 21 3 9 15 4 30 -10 30 -5 0 -12 -5 -16 -11z"/>
 <path d="M774 989 c-10 -17 13 -36 27 -22 12 12 4 33 -11 33 -5 0 -12 -5 -16 -11z"/>
 <path d="M710 915 c0 -10 7 -15 18 -13 21 4 19 22 -2 26 -10 2 -16 -3 -16 -13z"/>
 <path d="M770 914 c0 -9 7 -14 17 -12 25 5 28 28 4 28 -12 0 -21 -6 -21 -16z"/>
 <path d="M710 856 c0 -8 4 -17 9 -20 11 -7 33 18 24 27 -12 12 -33 7 -33 -7z"/>
 <path d="M774 859 c-3 -6 -2 -15 2 -19 12 -12 38 5 30 19 -9 14 -23 14 -32 0z"/>
 <path d="M4027 782 c-23 -25 -21 -68 3 -92 27 -27 56 -25 86 6 20 19 24 31 19 52 -12 51 -75 71 -108 34z"/>
 <path d="M710 710 l0 -60 50 0 50 0 0 60 0 60 -50 0 -50 0 0 -60z"/>
 </g>
<g id="layer104" fill="#628ae2" stroke="none">
 <path d="M4654 1459 c-68 -19 -89 -86 -51 -162 22 -43 23 -49 8 -54 -9 -3 -26 -15 -38 -26 l-23 -20 -24 22 c-15 15 -42 25 -70 28 -40 5 -48 2 -76 -25 -33 -34 -35 -46 -20 -160 11 -80 2 -112 -29 -112 -37 0 -53 35 -68 152 -8 62 -16 118 -18 124 -4 15 -196 27 -228 15 -14 -6 -28 -15 -32 -21 -5 -8 -12 -6 -25 5 -10 9 -37 19 -60 22 -33 5 -48 1 -71 -16 -29 -22 -31 -22 -50 -5 -10 9 -40 19 -66 21 -40 4 -55 0 -87 -22 l-39 -26 -23 22 c-13 13 -41 23 -68 26 -40 5 -48 2 -76 -25 -33 -34 -35 -46 -20 -160 11 -80 2 -112 -29 -112 -37 0 -53 35 -68 152 -8 62 -17 119 -19 126 -2 8 -23 12 -58 12 l-55 0 6 -31 6 -30 -38 25 c-146 99 -311 29 -309 -131 2 -108 89 -193 198 -193 170 0 180 176 13 230 -21 6 -44 9 -52 6 -24 -9 -17 -44 12 -58 68 -33 83 -112 20 -106 -70 7 -106 140 -52 193 34 35 89 34 144 -3 61 -41 72 -64 85 -166 l11 -91 42 -3 c26 -2 46 2 54 11 12 12 17 12 37 -1 32 -21 117 -11 145 17 24 24 26 57 13 184 -8 72 -8 77 11 77 31 0 43 -21 43 -77 0 -127 83 -212 207 -213 58 0 56 4 68 -118 8 -68 27 -92 75 -92 49 0 49 2 19 230 -16 118 -28 227 -29 243 0 33 19 35 48 4 17 -18 24 -44 33 -128 9 -81 16 -108 31 -121 24 -21 98 -25 98 -5 0 6 -7 59 -15 117 -18 134 -18 149 1 157 33 12 48 -23 63 -154 l16 -128 42 -3 c26 -2 46 2 54 11 12 12 17 12 37 -1 32 -21 117 -11 145 17 24 24 26 57 13 184 -8 72 -8 77 11 77 32 0 43 -21 43 -80 0 -62 24 -123 61 -157 45 -41 88 -52 203 -51 l108 0 -6 49 c-3 27 -9 73 -12 102 l-7 52 37 -35 c36 -34 38 -34 52 -16 8 11 14 23 14 27 0 4 -26 30 -57 58 l-57 51 -13 97 c-7 53 -21 110 -31 126 -33 57 -95 83 -158 66z m60 -91 c7 -13 16 -46 18 -75 l5 -51 -30 21 c-48 36 -70 90 -45 115 18 18 36 14 52 -10z m-946 -221 c19 -20 41 -114 42 -179 0 -28 -65 -24 -95 6 -44 44 -58 143 -25 176 26 26 52 25 78 -3z m960 0 c19 -20 41 -114 42 -179 0 -28 -65 -24 -95 6 -44 44 -58 143 -25 176 26 26 52 25 78 -3z"/>
 <path d="M1883 1445 c-13 -9 -28 -33 -34 -55 -11 -35 -9 -44 14 -92 14 -29 25 -52 24 -53 -1 0 -17 -8 -34 -17 -31 -16 -35 -16 -75 2 -56 25 -103 25 -128 0 -23 -23 -26 -81 -10 -194 6 -38 9 -70 7 -72 -2 -2 -25 48 -51 111 l-49 115 -37 0 -37 0 -13 -110 c-8 -60 -16 -110 -20 -110 -3 0 -18 51 -32 113 -23 95 -32 116 -58 140 -36 33 -87 36 -121 8 -19 -15 -24 -29 -24 -65 0 -38 5 -51 34 -80 18 -19 46 -40 60 -46 25 -10 29 -20 62 -188 l34 -177 52 -3 51 -3 11 78 c6 43 16 118 22 166 l12 88 72 -163 71 -163 53 -3 53 -3 -6 28 c-8 41 -34 275 -42 376 -6 74 -5 87 9 87 8 0 24 -8 36 -17 16 -15 23 -40 35 -130 7 -61 17 -116 21 -122 3 -6 24 -11 45 -11 57 0 61 15 44 149 -11 86 -12 116 -3 127 15 19 32 18 58 -3 18 -15 24 -37 35 -132 10 -90 17 -117 31 -127 24 -17 95 -19 95 -2 0 7 -7 68 -16 137 -12 93 -13 126 -5 129 28 9 71 56 81 88 10 28 10 41 -1 60 -16 32 -26 30 -34 -5 -3 -15 -19 -41 -35 -56 l-28 -27 -7 48 c-12 90 -27 128 -60 161 -29 29 -39 33 -87 33 -32 0 -62 -6 -75 -15z m91 -77 c7 -13 17 -47 20 -77 l7 -53 -31 22 c-43 31 -65 76 -51 106 13 30 36 31 55 2z m-675 -228 c10 -31 4 -39 -17 -18 -14 14 -16 48 -3 48 5 0 14 -13 20 -30z"/>
 <path d="M792 1253 c4 -51 33 -54 33 -3 0 26 -5 36 -18 38 -16 3 -18 -2 -15 -35z"/>
 <path d="M89 1258 c-1 -7 -2 -103 -3 -213 l-1 -200 278 3 277 3 -2 207 -3 207 -272 3 c-215 2 -273 0 -274 -10z m51 -118 c0 -5 -7 -10 -15 -10 -8 0 -15 5 -15 10 0 6 7 10 15 10 8 0 15 -4 15 -10z m80 0 c0 -5 -6 -10 -14 -10 -8 0 -18 5 -21 10 -3 6 3 10 14 10 12 0 21 -4 21 -10z m80 0 c0 -5 -6 -10 -14 -10 -8 0 -18 5 -21 10 -3 6 3 10 14 10 12 0 21 -4 21 -10z m72 -2 c-9 -9 -15 -9 -24 0 -9 9 -7 12 12 12 19 0 21 -3 12 -12z m80 0 c-9 -9 -15 -9 -24 0 -9 9 -7 12 12 12 19 0 21 -3 12 -12z m80 0 c-9 -9 -15 -9 -24 0 -9 9 -7 12 12 12 19 0 21 -3 12 -12z m80 0 c-9 -9 -15 -9 -24 0 -9 9 -7 12 12 12 19 0 21 -3 12 -12z m-434 -128 c1 -14 -2 -31 -7 -39 -14 -22 -31 -3 -31 35 0 28 4 35 18 32 10 -2 18 -14 20 -28z m80 -7 c-2 -26 -8 -38 -18 -38 -10 0 -16 12 -18 38 -3 32 0 37 18 37 18 0 21 -5 18 -37z m90 7 c1 -14 -2 -31 -7 -39 -14 -22 -31 -3 -31 35 0 28 4 35 18 32 10 -2 18 -14 20 -28z m80 -7 c-2 -26 -8 -38 -18 -38 -10 0 -16 12 -18 38 -3 32 0 37 18 37 18 0 21 -5 18 -37z m70 0 c-4 -43 -25 -55 -34 -19 -8 33 1 56 21 56 13 0 15 -9 13 -37z m92 10 c0 -16 -4 -34 -9 -42 -14 -22 -31 -3 -31 35 0 27 4 34 20 34 15 0 20 -7 20 -27z m-420 -83 c0 -11 -4 -20 -9 -20 -14 0 -23 18 -16 30 10 17 25 11 25 -10z m86 9 c10 -17 -13 -36 -27 -22 -12 12 -4 33 11 33 5 0 12 -5 16 -11z m84 -9 c0 -11 -4 -20 -9 -20 -14 0 -23 18 -16 30 10 17 25 11 25 -10z m86 9 c10 -17 -13 -36 -27 -22 -12 12 -4 33 11 33 5 0 12 -5 16 -11z m69 -9 c0 -7 -6 -15 -12 -17 -8 -3 -13 4 -13 17 0 13 5 20 13 18 6 -3 12 -11 12 -18z m89 12 c8 -13 -11 -35 -23 -28 -16 10 -14 36 3 36 8 0 17 -4 20 -8z"/>
 <path d="M2510 1220 c0 -43 -31 -436 -35 -447 -13 -38 -59 10 -85 89 l-11 38 -30 -16 c-34 -17 -33 -25 7 -110 30 -64 62 -93 107 -101 100 -16 117 16 131 240 5 92 13 167 16 167 3 0 28 -62 55 -137 72 -206 88 -239 125 -258 60 -31 130 2 130 63 0 51 -28 92 -89 130 l-60 37 -62 163 -62 162 -68 0 c-63 0 -69 -2 -69 -20z m341 -432 c7 -14 8 -23 1 -30 -7 -7 -16 0 -26 20 -9 17 -16 33 -16 36 0 12 31 -8 41 -26z"/>
 <path d="M707 1124 c-15 -15 8 -24 59 -24 41 0 54 4 54 15 0 11 -13 15 -53 15 -30 0 -57 -3 -60 -6z"/>
 <path d="M744 1049 c-10 -17 13 -36 27 -22 12 12 4 33 -11 33 -5 0 -12 -5 -16 -11z"/>
 <path d="M714 989 c-3 -6 -1 -16 5 -22 9 -9 14 -8 21 3 9 15 4 30 -10 30 -5 0 -12 -5 -16 -11z"/>
 <path d="M774 989 c-10 -17 13 -36 27 -22 12 12 4 33 -11 33 -5 0 -12 -5 -16 -11z"/>
 <path d="M710 915 c0 -10 7 -15 18 -13 21 4 19 22 -2 26 -10 2 -16 -3 -16 -13z"/>
 <path d="M770 914 c0 -9 7 -14 17 -12 25 5 28 28 4 28 -12 0 -21 -6 -21 -16z"/>
 <path d="M710 856 c0 -8 4 -17 9 -20 11 -7 33 18 24 27 -12 12 -33 7 -33 -7z"/>
 <path d="M774 859 c-3 -6 -2 -15 2 -19 12 -12 38 5 30 19 -9 14 -23 14 -32 0z"/>
 <path d="M4027 782 c-23 -25 -21 -68 3 -92 27 -27 56 -25 86 6 20 19 24 31 19 52 -12 51 -75 71 -108 34z"/>
 <path d="M85 682 c1 -53 2 -130 3 -169 l2 -73 270 0 270 0 5 23 c9 36 0 315 -9 290 -10 -29 -34 -30 -38 -3 -4 27 -22 27 -26 0 -5 -28 -29 -25 -36 5 -7 29 -26 24 -26 -6 0 -29 -34 -20 -38 9 -4 27 -22 19 -22 -9 0 -29 -34 -20 -38 9 -4 26 -22 20 -22 -9 0 -12 -7 -19 -20 -19 -15 0 -20 7 -20 25 0 14 -4 25 -10 25 -5 0 -10 -11 -10 -25 0 -18 -5 -25 -20 -25 -13 0 -20 7 -20 19 0 29 -18 35 -22 9 -4 -29 -38 -38 -38 -9 0 28 -18 36 -22 9 -4 -29 -38 -38 -38 -9 0 21 -19 40 -21 22 -1 -6 -2 -17 -3 -23 0 -7 -9 -14 -18 -16 -12 -2 -18 3 -18 17 0 11 -4 22 -8 25 -4 2 -7 -39 -7 -92z m443 -161 c3 -8 -1 -12 -9 -9 -7 2 -15 10 -17 17 -3 8 1 12 9 9 7 -2 15 -10 17 -17z m-156 -3 c-9 -9 -15 -9 -24 0 -9 9 -7 12 12 12 19 0 21 -3 12 -12z m80 0 c-9 -9 -15 -9 -24 0 -9 9 -7 12 12 12 19 0 21 -3 12 -12z m160 0 c-9 -9 -15 -9 -24 0 -9 9 -7 12 12 12 19 0 21 -3 12 -12z"/>
 <path d="M710 710 l0 -60 50 0 50 0 0 60 0 60 -50 0 -50 0 0 -60z"/>
 </g>
<g id="layer105" fill="#fcc855" stroke="none">
 <path d="M4654 1459 c-68 -19 -89 -86 -51 -162 22 -43 23 -49 8 -54 -9 -3 -26 -15 -38 -26 l-23 -20 -24 22 c-15 15 -42 25 -70 28 -40 5 -48 2 -76 -25 -33 -34 -35 -46 -20 -160 11 -80 2 -112 -29 -112 -37 0 -53 35 -68 152 -8 62 -16 118 -18 124 -4 15 -196 27 -228 15 -14 -6 -28 -15 -32 -21 -5 -8 -12 -6 -25 5 -10 9 -37 19 -60 22 -33 5 -48 1 -71 -16 -29 -22 -31 -22 -50 -5 -10 9 -40 19 -66 21 -40 4 -55 0 -87 -22 l-39 -26 -23 22 c-13 13 -41 23 -68 26 -40 5 -48 2 -76 -25 -33 -34 -35 -46 -20 -160 11 -80 2 -112 -29 -112 -37 0 -53 35 -68 152 -8 62 -17 119 -19 126 -2 8 -23 12 -58 12 l-55 0 6 -31 6 -30 -38 25 c-146 99 -311 29 -309 -131 2 -108 89 -193 198 -193 170 0 180 176 13 230 -21 6 -44 9 -52 6 -24 -9 -17 -44 12 -58 68 -33 83 -112 20 -106 -70 7 -106 140 -52 193 34 35 89 34 144 -3 61 -41 72 -64 85 -166 l11 -91 42 -3 c26 -2 46 2 54 11 12 12 17 12 37 -1 32 -21 117 -11 145 17 24 24 26 57 13 184 -8 72 -8 77 11 77 31 0 43 -21 43 -77 0 -127 83 -212 207 -213 58 0 56 4 68 -118 8 -68 27 -92 75 -92 49 0 49 2 19 230 -16 118 -28 227 -29 243 0 33 19 35 48 4 17 -18 24 -44 33 -128 9 -81 16 -108 31 -121 24 -21 98 -25 98 -5 0 6 -7 59 -15 117 -18 134 -18 149 1 157 33 12 48 -23 63 -154 l16 -128 42 -3 c26 -2 46 2 54 11 12 12 17 12 37 -1 32 -21 117 -11 145 17 24 24 26 57 13 184 -8 72 -8 77 11 77 32 0 43 -21 43 -80 0 -62 24 -123 61 -157 45 -41 88 -52 203 -51 l108 0 -6 49 c-3 27 -9 73 -12 102 l-7 52 37 -35 c36 -34 38 -34 52 -16 8 11 14 23 14 27 0 4 -26 30 -57 58 l-57 51 -13 97 c-7 53 -21 110 -31 126 -33 57 -95 83 -158 66z m60 -91 c7 -13 16 -46 18 -75 l5 -51 -30 21 c-48 36 -70 90 -45 115 18 18 36 14 52 -10z m-946 -221 c19 -20 41 -114 42 -179 0 -28 -65 -24 -95 6 -44 44 -58 143 -25 176 26 26 52 25 78 -3z m960 0 c19 -20 41 -114 42 -179 0 -28 -65 -24 -95 6 -44 44 -58 143 -25 176 26 26 52 25 78 -3z"/>
 <path d="M1883 1445 c-13 -9 -28 -33 -34 -55 -11 -35 -9 -44 14 -92 14 -29 25 -52 24 -53 -1 0 -17 -8 -34 -17 -31 -16 -35 -16 -75 2 -56 25 -103 25 -128 0 -23 -23 -26 -81 -10 -194 6 -38 9 -70 7 -72 -2 -2 -25 48 -51 111 l-49 115 -37 0 -37 0 -13 -110 c-8 -60 -16 -110 -20 -110 -3 0 -18 51 -32 113 -23 95 -32 116 -58 140 -36 33 -87 36 -121 8 -19 -15 -24 -29 -24 -65 0 -38 5 -51 34 -80 18 -19 46 -40 60 -46 25 -10 29 -20 62 -188 l34 -177 52 -3 51 -3 11 78 c6 43 16 118 22 166 l12 88 72 -163 71 -163 53 -3 53 -3 -6 28 c-8 41 -34 275 -42 376 -6 74 -5 87 9 87 8 0 24 -8 36 -17 16 -15 23 -40 35 -130 7 -61 17 -116 21 -122 3 -6 24 -11 45 -11 57 0 61 15 44 149 -11 86 -12 116 -3 127 15 19 32 18 58 -3 18 -15 24 -37 35 -132 10 -90 17 -117 31 -127 24 -17 95 -19 95 -2 0 7 -7 68 -16 137 -12 93 -13 126 -5 129 28 9 71 56 81 88 10 28 10 41 -1 60 -16 32 -26 30 -34 -5 -3 -15 -19 -41 -35 -56 l-28 -27 -7 48 c-12 90 -27 128 -60 161 -29 29 -39 33 -87 33 -32 0 -62 -6 -75 -15z m91 -77 c7 -13 17 -47 20 -77 l7 -53 -31 22 c-43 31 -65 76 -51 106 13 30 36 31 55 2z m-675 -228 c10 -31 4 -39 -17 -18 -14 14 -16 48 -3 48 5 0 14 -13 20 -30z"/>
 <path d="M792 1253 c4 -51 33 -54 33 -3 0 26 -5 36 -18 38 -16 3 -18 -2 -15 -35z"/>
 <path d="M89 1258 c-1 -7 -2 -103 -3 -213 l-1 -200 278 3 277 3 -2 207 -3 207 -272 3 c-215 2 -273 0 -274 -10z m51 -118 c0 -5 -7 -10 -15 -10 -8 0 -15 5 -15 10 0 6 7 10 15 10 8 0 15 -4 15 -10z m80 0 c0 -5 -6 -10 -14 -10 -8 0 -18 5 -21 10 -3 6 3 10 14 10 12 0 21 -4 21 -10z m80 0 c0 -5 -6 -10 -14 -10 -8 0 -18 5 -21 10 -3 6 3 10 14 10 12 0 21 -4 21 -10z m72 -2 c-9 -9 -15 -9 -24 0 -9 9 -7 12 12 12 19 0 21 -3 12 -12z m80 0 c-9 -9 -15 -9 -24 0 -9 9 -7 12 12 12 19 0 21 -3 12 -12z m80 0 c-9 -9 -15 -9 -24 0 -9 9 -7 12 12 12 19 0 21 -3 12 -12z m80 0 c-9 -9 -15 -9 -24 0 -9 9 -7 12 12 12 19 0 21 -3 12 -12z m-434 -128 c1 -14 -2 -31 -7 -39 -14 -22 -31 -3 -31 35 0 28 4 35 18 32 10 -2 18 -14 20 -28z m80 -7 c-2 -26 -8 -38 -18 -38 -10 0 -16 12 -18 38 -3 32 0 37 18 37 18 0 21 -5 18 -37z m90 7 c1 -14 -2 -31 -7 -39 -14 -22 -31 -3 -31 35 0 28 4 35 18 32 10 -2 18 -14 20 -28z m80 -7 c-2 -26 -8 -38 -18 -38 -10 0 -16 12 -18 38 -3 32 0 37 18 37 18 0 21 -5 18 -37z m70 0 c-4 -43 -25 -55 -34 -19 -8 33 1 56 21 56 13 0 15 -9 13 -37z m92 10 c0 -16 -4 -34 -9 -42 -14 -22 -31 -3 -31 35 0 27 4 34 20 34 15 0 20 -7 20 -27z m-420 -83 c0 -11 -4 -20 -9 -20 -14 0 -23 18 -16 30 10 17 25 11 25 -10z m86 9 c10 -17 -13 -36 -27 -22 -12 12 -4 33 11 33 5 0 12 -5 16 -11z m84 -9 c0 -11 -4 -20 -9 -20 -14 0 -23 18 -16 30 10 17 25 11 25 -10z m86 9 c10 -17 -13 -36 -27 -22 -12 12 -4 33 11 33 5 0 12 -5 16 -11z m69 -9 c0 -7 -6 -15 -12 -17 -8 -3 -13 4 -13 17 0 13 5 20 13 18 6 -3 12 -11 12 -18z m89 12 c8 -13 -11 -35 -23 -28 -16 10 -14 36 3 36 8 0 17 -4 20 -8z"/>
 <path d="M2510 1220 c0 -43 -31 -436 -35 -447 -13 -38 -59 10 -85 89 l-11 38 -30 -16 c-34 -17 -33 -25 7 -110 30 -64 62 -93 107 -101 100 -16 117 16 131 240 5 92 13 167 16 167 3 0 28 -62 55 -137 72 -206 88 -239 125 -258 60 -31 130 2 130 63 0 51 -28 92 -89 130 l-60 37 -62 163 -62 162 -68 0 c-63 0 -69 -2 -69 -20z m341 -432 c7 -14 8 -23 1 -30 -7 -7 -16 0 -26 20 -9 17 -16 33 -16 36 0 12 31 -8 41 -26z"/>
 <path d="M707 1124 c-15 -15 8 -24 59 -24 41 0 54 4 54 15 0 11 -13 15 -53 15 -30 0 -57 -3 -60 -6z"/>
 <path d="M744 1049 c-10 -17 13 -36 27 -22 12 12 4 33 -11 33 -5 0 -12 -5 -16 -11z"/>
 <path d="M714 989 c-3 -6 -1 -16 5 -22 9 -9 14 -8 21 3 9 15 4 30 -10 30 -5 0 -12 -5 -16 -11z"/>
 <path d="M774 989 c-10 -17 13 -36 27 -22 12 12 4 33 -11 33 -5 0 -12 -5 -16 -11z"/>
 <path d="M710 915 c0 -10 7 -15 18 -13 21 4 19 22 -2 26 -10 2 -16 -3 -16 -13z"/>
 <path d="M770 914 c0 -9 7 -14 17 -12 25 5 28 28 4 28 -12 0 -21 -6 -21 -16z"/>
 <path d="M710 856 c0 -8 4 -17 9 -20 11 -7 33 18 24 27 -12 12 -33 7 -33 -7z"/>
 <path d="M774 859 c-3 -6 -2 -15 2 -19 12 -12 38 5 30 19 -9 14 -23 14 -32 0z"/>
 <path d="M4027 782 c-23 -25 -21 -68 3 -92 27 -27 56 -25 86 6 20 19 24 31 19 52 -12 51 -75 71 -108 34z"/>
 <path d="M85 682 c1 -53 2 -130 3 -169 l2 -73 270 0 270 0 6 24 c8 33 1 91 -11 91 -5 0 -10 -9 -10 -20 0 -27 -29 -26 -33 2 -2 12 -9 27 -17 33 -10 9 -16 4 -25 -25 -13 -38 -27 -45 -36 -17 -3 9 -10 25 -15 34 -5 10 -9 34 -9 53 l0 35 80 -2 80 -3 0 63 c0 40 -4 61 -10 57 -5 -3 -10 -13 -10 -21 0 -22 -28 -17 -32 6 -2 12 -7 21 -13 21 -5 0 -11 -9 -13 -21 -5 -28 -29 -25 -36 5 -7 29 -26 24 -26 -6 0 -29 -34 -20 -38 9 -4 27 -22 19 -22 -9 0 -29 -34 -20 -38 9 -4 26 -22 20 -22 -9 0 -12 -7 -19 -20 -19 -15 0 -20 7 -20 25 0 14 -4 25 -10 25 -5 0 -10 -11 -10 -25 0 -18 -5 -25 -20 -25 -13 0 -20 7 -20 19 0 29 -18 35 -22 9 -4 -29 -38 -38 -38 -9 0 28 -18 36 -22 9 -4 -29 -38 -38 -38 -9 0 21 -19 40 -21 22 -1 -6 -2 -17 -3 -23 0 -7 -9 -14 -18 -16 -12 -2 -18 3 -18 17 0 11 -4 22 -8 25 -4 2 -7 -39 -7 -92z m287 -164 c-9 -9 -15 -9 -24 0 -9 9 -7 12 12 12 19 0 21 -3 12 -12z m80 0 c-9 -9 -15 -9 -24 0 -9 9 -7 12 12 12 19 0 21 -3 12 -12z"/>
 <path d="M710 710 l0 -60 50 0 50 0 0 60 0 60 -50 0 -50 0 0 -60z"/>
 </g>
<g id="layer106" fill="#9fcdd5" stroke="none">
 <path d="M4654 1459 c-68 -19 -89 -86 -51 -162 22 -43 23 -49 8 -54 -9 -3 -26 -15 -38 -26 l-23 -20 -24 22 c-15 15 -42 25 -70 28 -40 5 -48 2 -76 -25 -33 -34 -35 -46 -20 -160 11 -80 2 -112 -29 -112 -37 0 -53 35 -68 152 -8 62 -16 118 -18 124 -4 15 -196 27 -228 15 -14 -6 -28 -15 -32 -21 -5 -8 -12 -6 -25 5 -10 9 -37 19 -60 22 -33 5 -48 1 -71 -16 -29 -22 -31 -22 -50 -5 -10 9 -40 19 -66 21 -40 4 -55 0 -87 -22 l-39 -26 -23 22 c-13 13 -41 23 -68 26 -40 5 -48 2 -76 -25 -33 -34 -35 -46 -20 -160 11 -80 2 -112 -29 -112 -37 0 -53 35 -68 152 -8 62 -17 119 -19 126 -2 8 -23 12 -58 12 l-55 0 6 -31 6 -30 -38 25 c-146 99 -311 29 -309 -131 2 -108 89 -193 198 -193 170 0 180 176 13 230 -21 6 -44 9 -52 6 -24 -9 -17 -44 12 -58 68 -33 83 -112 20 -106 -70 7 -106 140 -52 193 34 35 89 34 144 -3 61 -41 72 -64 85 -166 l11 -91 42 -3 c26 -2 46 2 54 11 12 12 17 12 37 -1 32 -21 117 -11 145 17 24 24 26 57 13 184 -8 72 -8 77 11 77 31 0 43 -21 43 -77 0 -127 83 -212 207 -213 58 0 56 4 68 -118 8 -68 27 -92 75 -92 49 0 49 2 19 230 -16 118 -28 227 -29 243 0 33 19 35 48 4 17 -18 24 -44 33 -128 9 -81 16 -108 31 -121 24 -21 98 -25 98 -5 0 6 -7 59 -15 117 -18 134 -18 149 1 157 33 12 48 -23 63 -154 l16 -128 42 -3 c26 -2 46 2 54 11 12 12 17 12 37 -1 32 -21 117 -11 145 17 24 24 26 57 13 184 -8 72 -8 77 11 77 32 0 43 -21 43 -80 0 -62 24 -123 61 -157 45 -41 88 -52 203 -51 l108 0 -6 49 c-3 27 -9 73 -12 102 l-7 52 37 -35 c36 -34 38 -34 52 -16 8 11 14 23 14 27 0 4 -26 30 -57 58 l-57 51 -13 97 c-7 53 -21 110 -31 126 -33 57 -95 83 -158 66z m60 -91 c7 -13 16 -46 18 -75 l5 -51 -30 21 c-48 36 -70 90 -45 115 18 18 36 14 52 -10z m-946 -221 c19 -20 41 -114 42 -179 0 -28 -65 -24 -95 6 -44 44 -58 143 -25 176 26 26 52 25 78 -3z m960 0 c19 -20 41 -114 42 -179 0 -28 -65 -24 -95 6 -44 44 -58 143 -25 176 26 26 52 25 78 -3z"/>
 <path d="M1883 1445 c-13 -9 -28 -33 -34 -55 -11 -35 -9 -44 14 -92 14 -29 25 -52 24 -53 -1 0 -17 -8 -34 -17 -31 -16 -35 -16 -75 2 -56 25 -103 25 -128 0 -23 -23 -26 -81 -10 -194 6 -38 9 -70 7 -72 -2 -2 -25 48 -51 111 l-49 115 -37 0 -37 0 -13 -110 c-8 -60 -16 -110 -20 -110 -3 0 -18 51 -32 113 -23 95 -32 116 -58 140 -36 33 -87 36 -121 8 -19 -15 -24 -29 -24 -65 0 -38 5 -51 34 -80 18 -19 46 -40 60 -46 25 -10 29 -20 62 -188 l34 -177 52 -3 51 -3 11 78 c6 43 16 118 22 166 l12 88 72 -163 71 -163 53 -3 53 -3 -6 28 c-8 41 -34 275 -42 376 -6 74 -5 87 9 87 8 0 24 -8 36 -17 16 -15 23 -40 35 -130 7 -61 17 -116 21 -122 3 -6 24 -11 45 -11 57 0 61 15 44 149 -11 86 -12 116 -3 127 15 19 32 18 58 -3 18 -15 24 -37 35 -132 10 -90 17 -117 31 -127 24 -17 95 -19 95 -2 0 7 -7 68 -16 137 -12 93 -13 126 -5 129 28 9 71 56 81 88 10 28 10 41 -1 60 -16 32 -26 30 -34 -5 -3 -15 -19 -41 -35 -56 l-28 -27 -7 48 c-12 90 -27 128 -60 161 -29 29 -39 33 -87 33 -32 0 -62 -6 -75 -15z m91 -77 c7 -13 17 -47 20 -77 l7 -53 -31 22 c-43 31 -65 76 -51 106 13 30 36 31 55 2z m-675 -228 c10 -31 4 -39 -17 -18 -14 14 -16 48 -3 48 5 0 14 -13 20 -30z"/>
 <path d="M792 1253 c4 -51 33 -54 33 -3 0 26 -5 36 -18 38 -16 3 -18 -2 -15 -35z"/>
 <path d="M320 1231 c0 -22 -4 -43 -10 -46 -5 -3 -10 -17 -10 -31 0 -25 -27 -35 -34 -11 -15 48 -16 49 -31 37 -8 -7 -15 -21 -15 -32 0 -26 -33 -20 -38 7 -7 37 -21 40 -33 7 -13 -39 -34 -41 -47 -4 -10 25 -11 23 -12 -23 -2 -27 -3 -104 -4 -170 l-1 -120 278 3 277 3 -2 207 -3 207 -157 3 -158 3 0 -40z m52 -93 c-9 -9 -15 -9 -24 0 -9 9 -7 12 12 12 19 0 21 -3 12 -12z m80 0 c-9 -9 -15 -9 -24 0 -9 9 -7 12 12 12 19 0 21 -3 12 -12z m80 0 c-9 -9 -15 -9 -24 0 -9 9 -7 12 12 12 19 0 21 -3 12 -12z m80 0 c-9 -9 -15 -9 -24 0 -9 9 -7 12 12 12 19 0 21 -3 12 -12z m-434 -128 c1 -14 -2 -31 -7 -39 -14 -22 -31 -3 -31 35 0 28 4 35 18 32 10 -2 18 -14 20 -28z m80 -7 c-2 -26 -8 -38 -18 -38 -10 0 -16 12 -18 38 -3 32 0 37 18 37 18 0 21 -5 18 -37z m90 7 c1 -14 -2 -31 -7 -39 -14 -22 -31 -3 -31 35 0 28 4 35 18 32 10 -2 18 -14 20 -28z m80 -7 c-2 -26 -8 -38 -18 -38 -10 0 -16 12 -18 38 -3 32 0 37 18 37 18 0 21 -5 18 -37z m70 0 c-4 -43 -25 -55 -34 -19 -8 33 1 56 21 56 13 0 15 -9 13 -37z m92 10 c0 -16 -4 -34 -9 -42 -14 -22 -31 -3 -31 35 0 27 4 34 20 34 15 0 20 -7 20 -27z m-420 -83 c0 -11 -4 -20 -9 -20 -14 0 -23 18 -16 30 10 17 25 11 25 -10z m86 9 c10 -17 -13 -36 -27 -22 -12 12 -4 33 11 33 5 0 12 -5 16 -11z m84 -9 c0 -11 -4 -20 -9 -20 -14 0 -23 18 -16 30 10 17 25 11 25 -10z m86 9 c10 -17 -13 -36 -27 -22 -12 12 -4 33 11 33 5 0 12 -5 16 -11z m69 -9 c0 -7 -6 -15 -12 -17 -8 -3 -13 4 -13 17 0 13 5 20 13 18 6 -3 12 -11 12 -18z m89 12 c8 -13 -11 -35 -23 -28 -16 10 -14 36 3 36 8 0 17 -4 20 -8z"/>
 <path d="M2510 1220 c0 -43 -31 -436 -35 -447 -13 -38 -59 10 -85 89 l-11 38 -30 -16 c-34 -17 -33 -25 7 -110 30 -64 62 -93 107 -101 100 -16 117 16 131 240 5 92 13 167 16 167 3 0 28 -62 55 -137 72 -206 88 -239 125 -258 60 -31 130 2 130 63 0 51 -28 92 -89 130 l-60 37 -62 163 -62 162 -68 0 c-63 0 -69 -2 -69 -20z m341 -432 c7 -14 8 -23 1 -30 -7 -7 -16 0 -26 20 -9 17 -16 33 -16 36 0 12 31 -8 41 -26z"/>
 <path d="M707 1124 c-15 -15 8 -24 59 -24 41 0 54 4 54 15 0 11 -13 15 -53 15 -30 0 -57 -3 -60 -6z"/>
 <path d="M744 1049 c-10 -17 13 -36 27 -22 12 12 4 33 -11 33 -5 0 -12 -5 -16 -11z"/>
 <path d="M714 989 c-3 -6 -1 -16 5 -22 9 -9 14 -8 21 3 9 15 4 30 -10 30 -5 0 -12 -5 -16 -11z"/>
 <path d="M774 989 c-10 -17 13 -36 27 -22 12 12 4 33 -11 33 -5 0 -12 -5 -16 -11z"/>
 <path d="M710 915 c0 -10 7 -15 18 -13 21 4 19 22 -2 26 -10 2 -16 -3 -16 -13z"/>
 <path d="M770 914 c0 -9 7 -14 17 -12 25 5 28 28 4 28 -12 0 -21 -6 -21 -16z"/>
 <path d="M710 856 c0 -8 4 -17 9 -20 11 -7 33 18 24 27 -12 12 -33 7 -33 -7z"/>
 <path d="M774 859 c-3 -6 -2 -15 2 -19 12 -12 38 5 30 19 -9 14 -23 14 -32 0z"/>
 <path d="M4027 782 c-23 -25 -21 -68 3 -92 27 -27 56 -25 86 6 20 19 24 31 19 52 -12 51 -75 71 -108 34z"/>
 <path d="M85 682 c1 -53 2 -130 3 -169 l2 -73 270 0 270 0 6 24 c8 33 1 91 -11 91 -5 0 -10 -9 -10 -20 0 -27 -29 -26 -33 2 -2 12 -9 27 -17 33 -10 9 -16 3 -25 -25 -13 -40 -31 -42 -40 -4 -8 31 -32 31 -40 -1 -3 -14 -12 -25 -20 -25 -8 0 -17 11 -20 25 -8 32 -32 32 -40 1 -7 -31 -28 -39 -36 -14 -3 10 -10 26 -15 35 -5 10 -9 34 -9 53 l0 36 160 -3 160 -3 0 63 c0 40 -4 61 -10 57 -5 -3 -10 -13 -10 -21 0 -22 -28 -17 -32 6 -4 27 -22 27 -26 0 -5 -28 -29 -25 -36 5 -7 29 -26 24 -26 -6 0 -29 -34 -20 -38 9 -4 27 -22 19 -22 -9 0 -29 -34 -20 -38 9 -4 26 -22 20 -22 -9 0 -12 -7 -19 -20 -19 -15 0 -20 7 -20 25 0 14 -4 25 -10 25 -5 0 -10 -11 -10 -25 0 -18 -5 -25 -20 -25 -13 0 -20 7 -20 19 0 29 -18 35 -22 9 -4 -29 -38 -38 -38 -9 0 28 -18 36 -22 9 -4 -29 -38 -38 -38 -9 0 21 -19 40 -21 22 -1 -6 -2 -17 -3 -23 0 -7 -9 -14 -18 -16 -12 -2 -18 3 -18 17 0 11 -4 22 -8 25 -4 2 -7 -39 -7 -92z"/>
 <path d="M710 710 l0 -60 50 0 50 0 0 60 0 60 -50 0 -50 0 0 -60z"/>
 </g>
<g id="layer107" fill="#fd90c9" stroke="none">
 <path d="M4654 1459 c-68 -19 -89 -86 -51 -162 22 -43 23 -49 8 -54 -9 -3 -26 -15 -38 -26 l-23 -20 -24 22 c-15 15 -42 25 -70 28 -40 5 -48 2 -76 -25 -33 -34 -35 -46 -20 -160 11 -80 2 -112 -29 -112 -37 0 -53 35 -68 152 -8 62 -16 118 -18 124 -4 15 -196 27 -228 15 -14 -6 -28 -15 -32 -21 -5 -8 -12 -6 -25 5 -10 9 -37 19 -60 22 -33 5 -48 1 -71 -16 -29 -22 -31 -22 -50 -5 -10 9 -40 19 -66 21 -40 4 -55 0 -87 -22 l-39 -26 -23 22 c-13 13 -41 23 -68 26 -40 5 -48 2 -76 -25 -33 -34 -35 -46 -20 -160 11 -80 2 -112 -29 -112 -37 0 -53 35 -68 152 -8 62 -17 119 -19 126 -2 8 -23 12 -58 12 l-55 0 6 -31 6 -30 -38 25 c-146 99 -311 29 -309 -131 2 -108 89 -193 198 -193 170 0 180 176 13 230 -21 6 -44 9 -52 6 -24 -9 -17 -44 12 -58 68 -33 83 -112 20 -106 -70 7 -106 140 -52 193 34 35 89 34 144 -3 61 -41 72 -64 85 -166 l11 -91 42 -3 c26 -2 46 2 54 11 12 12 17 12 37 -1 32 -21 117 -11 145 17 24 24 26 57 13 184 -8 72 -8 77 11 77 31 0 43 -21 43 -77 0 -127 83 -212 207 -213 58 0 56 4 68 -118 8 -68 27 -92 75 -92 49 0 49 2 19 230 -16 118 -28 227 -29 243 0 33 19 35 48 4 17 -18 24 -44 33 -128 9 -81 16 -108 31 -121 24 -21 98 -25 98 -5 0 6 -7 59 -15 117 -18 134 -18 149 1 157 33 12 48 -23 63 -154 l16 -128 42 -3 c26 -2 46 2 54 11 12 12 17 12 37 -1 32 -21 117 -11 145 17 24 24 26 57 13 184 -8 72 -8 77 11 77 32 0 43 -21 43 -80 0 -62 24 -123 61 -157 45 -41 88 -52 203 -51 l108 0 -6 49 c-3 27 -9 73 -12 102 l-7 52 37 -35 c36 -34 38 -34 52 -16 8 11 14 23 14 27 0 4 -26 30 -57 58 l-57 51 -13 97 c-7 53 -21 110 -31 126 -33 57 -95 83 -158 66z m60 -91 c7 -13 16 -46 18 -75 l5 -51 -30 21 c-48 36 -70 90 -45 115 18 18 36 14 52 -10z m-946 -221 c19 -20 41 -114 42 -179 0 -28 -65 -24 -95 6 -44 44 -58 143 -25 176 26 26 52 25 78 -3z m960 0 c19 -20 41 -114 42 -179 0 -28 -65 -24 -95 6 -44 44 -58 143 -25 176 26 26 52 25 78 -3z"/>
 <path d="M1883 1445 c-13 -9 -28 -33 -34 -55 -11 -35 -9 -44 14 -92 14 -29 25 -52 24 -53 -1 0 -17 -8 -34 -17 -31 -16 -35 -16 -75 2 -56 25 -103 25 -128 0 -23 -23 -26 -81 -10 -194 6 -38 9 -70 7 -72 -2 -2 -25 48 -51 111 l-49 115 -37 0 -37 0 -13 -110 c-8 -60 -16 -110 -20 -110 -3 0 -18 51 -32 113 -23 95 -32 116 -58 140 -36 33 -87 36 -121 8 -19 -15 -24 -29 -24 -65 0 -38 5 -51 34 -80 18 -19 46 -40 60 -46 25 -10 29 -20 62 -188 l34 -177 52 -3 51 -3 11 78 c6 43 16 118 22 166 l12 88 72 -163 71 -163 53 -3 53 -3 -6 28 c-8 41 -34 275 -42 376 -6 74 -5 87 9 87 8 0 24 -8 36 -17 16 -15 23 -40 35 -130 7 -61 17 -116 21 -122 3 -6 24 -11 45 -11 57 0 61 15 44 149 -11 86 -12 116 -3 127 15 19 32 18 58 -3 18 -15 24 -37 35 -132 10 -90 17 -117 31 -127 24 -17 95 -19 95 -2 0 7 -7 68 -16 137 -12 93 -13 126 -5 129 28 9 71 56 81 88 10 28 10 41 -1 60 -16 32 -26 30 -34 -5 -3 -15 -19 -41 -35 -56 l-28 -27 -7 48 c-12 90 -27 128 -60 161 -29 29 -39 33 -87 33 -32 0 -62 -6 -75 -15z m91 -77 c7 -13 17 -47 20 -77 l7 -53 -31 22 c-43 31 -65 76 -51 106 13 30 36 31 55 2z m-675 -228 c10 -31 4 -39 -17 -18 -14 14 -16 48 -3 48 5 0 14 -13 20 -30z"/>
 <path d="M320 1231 c0 -22 -4 -43 -10 -46 -5 -3 -10 -17 -10 -31 0 -25 -27 -35 -34 -11 -15 48 -16 49 -31 37 -8 -7 -15 -21 -15 -32 0 -26 -33 -20 -38 7 -7 37 -21 40 -33 7 -13 -39 -34 -41 -47 -4 -9 24 -11 22 -11 -26 l-1 -52 273 2 272 3 0 90 0 90 -157 3 -158 3 0 -40z m52 -93 c-9 -9 -15 -9 -24 0 -9 9 -7 12 12 12 19 0 21 -3 12 -12z m80 0 c-9 -9 -15 -9 -24 0 -9 9 -7 12 12 12 19 0 21 -3 12 -12z m80 0 c-9 -9 -15 -9 -24 0 -9 9 -7 12 12 12 19 0 21 -3 12 -12z m83 2 c-3 -5 -12 -10 -20 -10 -8 0 -17 5 -20 10 -4 6 5 10 20 10 15 0 24 -4 20 -10z"/>
 <path d="M2510 1220 c0 -43 -31 -436 -35 -447 -13 -38 -59 10 -85 89 l-11 38 -30 -16 c-34 -17 -33 -25 7 -110 30 -64 62 -93 107 -101 100 -16 117 16 131 240 5 92 13 167 16 167 3 0 28 -62 55 -137 72 -206 88 -239 125 -258 60 -31 130 2 130 63 0 51 -28 92 -89 130 l-60 37 -62 163 -62 162 -68 0 c-63 0 -69 -2 -69 -20z m341 -432 c7 -14 8 -23 1 -30 -7 -7 -16 0 -26 20 -9 17 -16 33 -16 36 0 12 31 -8 41 -26z"/>
 <path d="M707 1124 c-15 -15 8 -24 59 -24 41 0 54 4 54 15 0 11 -13 15 -53 15 -30 0 -57 -3 -60 -6z"/>
 <path d="M740 1043 c0 -19 17 -24 30 -8 9 10 9 15 1 15 -6 0 -11 -6 -11 -12 0 -9 -4 -8 -10 2 -6 9 -10 10 -10 3z"/>
 <path d="M90 956 l0 -86 273 2 272 3 0 80 c0 75 -1 80 -22 83 -19 3 -23 -1 -23 -25 0 -15 -4 -34 -9 -42 -14 -22 -41 5 -41 41 0 23 -4 29 -17 26 -13 -2 -18 -13 -18 -37 0 -36 -21 -53 -36 -30 -5 8 -9 26 -9 42 0 43 -28 34 -32 -10 -2 -26 -8 -38 -18 -38 -10 0 -16 12 -18 38 -3 29 -7 37 -23 37 -14 0 -19 -7 -19 -27 0 -16 -4 -34 -9 -42 -15 -23 -36 -6 -36 30 0 27 -4 35 -22 37 -19 3 -22 -2 -25 -35 -4 -52 -32 -53 -36 0 -3 29 -7 37 -23 37 -14 0 -19 -7 -19 -27 0 -16 -4 -34 -9 -42 -15 -23 -36 -6 -36 30 0 28 -4 35 -22 37 -22 3 -23 1 -23 -82z m80 -26 c0 -11 -6 -20 -14 -20 -18 0 -29 16 -21 30 11 18 35 11 35 -10z m90 5 c0 -16 -27 -32 -37 -22 -3 4 -3 13 0 22 8 20 37 20 37 0z m80 -5 c0 -11 -6 -20 -14 -20 -18 0 -29 16 -21 30 11 18 35 11 35 -10z m90 5 c0 -16 -27 -32 -37 -22 -3 4 -3 13 0 22 8 20 37 20 37 0z m75 -5 c0 -8 -8 -16 -17 -18 -13 -2 -18 3 -18 18 0 15 5 20 18 18 9 -2 17 -10 17 -18z m79 12 c8 -13 -11 -35 -23 -28 -16 10 -14 36 3 36 8 0 17 -4 20 -8z"/>
 <path d="M715 990 c-7 -12 2 -30 16 -30 12 0 12 27 0 35 -5 3 -12 1 -16 -5z"/>
 <path d="M712 918 c5 -15 28 -18 29 -3 0 6 -7 12 -17 13 -10 3 -15 -1 -12 -10z"/>
 <path d="M770 915 c0 -8 6 -15 13 -15 8 0 14 7 14 15 0 8 -6 15 -14 15 -7 0 -13 -7 -13 -15z"/>
 <path d="M715 860 c-11 -17 5 -32 21 -19 7 6 11 15 8 20 -7 12 -21 11 -29 -1z"/>
 <path d="M4027 782 c-23 -25 -21 -68 3 -92 27 -27 56 -25 86 6 20 19 24 31 19 52 -12 51 -75 71 -108 34z"/>
 <path d="M140 753 c0 -28 -17 -38 -35 -23 -13 11 -15 6 -15 -29 l0 -41 273 2 272 3 0 30 c0 25 -4 30 -22 27 -15 -2 -23 4 -30 25 l-10 28 -7 -28 c-8 -35 -39 -33 -44 2 l-4 24 -12 -24 c-15 -31 -40 -31 -44 0 l-4 24 -12 -24 c-15 -31 -38 -31 -47 1 l-6 25 -12 -28 c-13 -33 -33 -31 -42 4 l-6 24 -11 -27 c-6 -16 -16 -28 -22 -28 -6 0 -16 12 -22 28 l-11 27 -6 -24 c-9 -35 -29 -37 -42 -4 l-12 28 -6 -25 c-4 -14 -13 -25 -21 -25 -8 0 -20 11 -27 25 -12 24 -13 24 -13 3z"/>
 <path d="M710 711 l0 -61 45 0 46 0 -3 58 -3 57 -42 3 -43 3 0 -60z"/>
 <path d="M90 550 l0 -100 273 2 272 3 3 39 c4 50 -8 82 -17 46 -9 -33 -32 -32 -49 3 -15 32 -32 27 -32 -9 0 -17 -5 -24 -20 -24 -11 0 -21 5 -21 10 -1 6 -2 14 -3 20 0 5 -6 14 -13 21 -10 10 -13 9 -17 -2 -13 -44 -17 -50 -28 -47 -7 3 -15 15 -18 29 -8 31 -32 31 -40 -1 -8 -35 -40 -40 -40 -6 0 14 -4 28 -10 31 -6 3 -10 24 -10 46 l0 39 -115 0 -115 0 0 -100z m57 -24 c-2 -6 -12 -11 -22 -11 -10 0 -20 5 -22 11 -2 7 7 12 22 12 15 0 24 -5 22 -12z m57 8 c9 -3 14 -10 11 -15 -7 -10 -35 0 -35 12 0 11 3 11 24 3z m96 -14 c0 -5 -7 -10 -15 -10 -8 0 -15 5 -15 10 0 6 7 10 15 10 8 0 15 -4 15 -10z"/>
 </g>
<g id="layer108" fill="#f8f9fa" stroke="none">
 <path d="M4654 1459 c-68 -19 -89 -86 -51 -162 22 -43 23 -49 8 -54 -9 -3 -26 -15 -38 -26 l-23 -20 -24 22 c-15 15 -42 25 -70 28 -40 5 -48 2 -76 -25 -33 -34 -35 -46 -20 -160 11 -80 2 -112 -29 -112 -37 0 -53 35 -68 152 -8 62 -16 118 -18 124 -4 15 -196 27 -228 15 -14 -6 -28 -15 -32 -21 -5 -8 -12 -6 -25 5 -10 9 -37 19 -60 22 -33 5 -48 1 -71 -16 -29 -22 -31 -22 -50 -5 -10 9 -40 19 -66 21 -40 4 -55 0 -87 -22 l-39 -26 -23 22 c-13 13 -41 23 -68 26 -40 5 -48 2 -76 -25 -33 -34 -35 -46 -20 -160 11 -80 2 -112 -29 -112 -37 0 -53 35 -68 152 -8 62 -17 119 -19 126 -2 8 -23 12 -58 12 l-55 0 6 -31 6 -30 -38 25 c-146 99 -311 29 -309 -131 2 -108 89 -193 198 -193 170 0 180 176 13 230 -21 6 -44 9 -52 6 -24 -9 -17 -44 12 -58 68 -33 83 -112 20 -106 -70 7 -106 140 -52 193 34 35 89 34 144 -3 61 -41 72 -64 85 -166 l11 -91 42 -3 c26 -2 46 2 54 11 12 12 17 12 37 -1 32 -21 117 -11 145 17 24 24 26 57 13 184 -8 72 -8 77 11 77 31 0 43 -21 43 -77 0 -127 83 -212 207 -213 58 0 56 4 68 -118 8 -68 27 -92 75 -92 49 0 49 2 19 230 -16 118 -28 227 -29 243 0 33 19 35 48 4 17 -18 24 -44 33 -128 9 -81 16 -108 31 -121 24 -21 98 -25 98 -5 0 6 -7 59 -15 117 -18 134 -18 149 1 157 33 12 48 -23 63 -154 l16 -128 42 -3 c26 -2 46 2 54 11 12 12 17 12 37 -1 32 -21 117 -11 145 17 24 24 26 57 13 184 -8 72 -8 77 11 77 32 0 43 -21 43 -80 0 -62 24 -123 61 -157 45 -41 88 -52 203 -51 l108 0 -6 49 c-3 27 -9 73 -12 102 l-7 52 37 -35 c36 -34 38 -34 52 -16 8 11 14 23 14 27 0 4 -26 30 -57 58 l-57 51 -13 97 c-7 53 -21 110 -31 126 -33 57 -95 83 -158 66z m60 -91 c7 -13 16 -46 18 -75 l5 -51 -30 21 c-48 36 -70 90 -45 115 18 18 36 14 52 -10z m-946 -221 c19 -20 41 -114 42 -179 0 -28 -65 -24 -95 6 -44 44 -58 143 -25 176 26 26 52 25 78 -3z m960 0 c19 -20 41 -114 42 -179 0 -28 -65 -24 -95 6 -44 44 -58 143 -25 176 26 26 52 25 78 -3z"/>
 <path d="M1883 1445 c-13 -9 -28 -33 -34 -55 -11 -35 -9 -44 14 -92 14 -29 25 -52 24 -53 -1 0 -17 -8 -34 -17 -31 -16 -35 -16 -75 2 -56 25 -103 25 -128 0 -23 -23 -26 -81 -10 -194 6 -38 9 -70 7 -72 -2 -2 -25 48 -51 111 l-49 115 -37 0 -37 0 -13 -110 c-8 -60 -16 -110 -20 -110 -3 0 -18 51 -32 113 -23 95 -32 116 -58 140 -36 33 -87 36 -121 8 -19 -15 -24 -29 -24 -65 0 -38 5 -51 34 -80 18 -19 46 -40 60 -46 25 -10 29 -20 62 -188 l34 -177 52 -3 51 -3 11 78 c6 43 16 118 22 166 l12 88 72 -163 71 -163 53 -3 53 -3 -6 28 c-8 41 -34 275 -42 376 -6 74 -5 87 9 87 8 0 24 -8 36 -17 16 -15 23 -40 35 -130 7 -61 17 -116 21 -122 3 -6 24 -11 45 -11 57 0 61 15 44 149 -11 86 -12 116 -3 127 15 19 32 18 58 -3 18 -15 24 -37 35 -132 10 -90 17 -117 31 -127 24 -17 95 -19 95 -2 0 7 -7 68 -16 137 -12 93 -13 126 -5 129 28 9 71 56 81 88 10 28 10 41 -1 60 -16 32 -26 30 -34 -5 -3 -15 -19 -41 -35 -56 l-28 -27 -7 48 c-12 90 -27 128 -60 161 -29 29 -39 33 -87 33 -32 0 -62 -6 -75 -15z m91 -77 c7 -13 17 -47 20 -77 l7 -53 -31 22 c-43 31 -65 76 -51 106 13 30 36 31 55 2z m-675 -228 c10 -31 4 -39 -17 -18 -14 14 -16 48 -3 48 5 0 14 -13 20 -30z"/>
 <path d="M2510 1220 c0 -43 -31 -436 -35 -447 -13 -38 -59 10 -85 89 l-11 38 -30 -16 c-34 -17 -33 -25 7 -110 30 -64 62 -93 107 -101 100 -16 117 16 131 240 5 92 13 167 16 167 3 0 28 -62 55 -137 72 -206 88 -239 125 -258 60 -31 130 2 130 63 0 51 -28 92 -89 130 l-60 37 -62 163 -62 162 -68 0 c-63 0 -69 -2 -69 -20z m341 -432 c7 -14 8 -23 1 -30 -7 -7 -16 0 -26 20 -9 17 -16 33 -16 36 0 12 31 -8 41 -26z"/>
 <path d="M149 1162 c-13 -39 -34 -41 -47 -4 -9 24 -11 22 -11 -26 l-1 -52 273 2 272 3 3 33 c2 19 0 41 -4 50 -5 14 -8 12 -13 -8 -8 -29 -46 -36 -46 -8 0 10 -6 23 -12 29 -13 13 -12 13 -28 -36 -7 -23 -23 -18 -37 13 -16 32 -31 32 -38 0 -8 -31 -33 -29 -40 2 -8 32 -32 32 -40 1 -6 -28 -28 -40 -34 -19 -13 43 -16 47 -31 42 -8 -3 -15 -17 -15 -30 0 -28 -28 -33 -36 -6 -3 9 -8 23 -10 31 -6 20 -34 -6 -34 -31 0 -26 -33 -20 -38 7 -7 37 -21 40 -33 7z"/>
 <path d="M740 1043 c0 -19 17 -24 30 -8 9 10 9 15 1 15 -6 0 -11 -6 -11 -12 0 -9 -4 -8 -10 2 -6 9 -10 10 -10 3z"/>
 <path d="M90 956 l0 -86 273 2 272 3 0 80 c0 75 -1 80 -22 83 -19 3 -23 -1 -23 -25 0 -15 -4 -34 -9 -42 -14 -22 -41 5 -41 41 0 23 -4 29 -17 26 -13 -2 -18 -13 -18 -37 0 -36 -21 -53 -36 -30 -5 8 -9 26 -9 42 0 43 -28 34 -32 -10 -2 -26 -8 -38 -18 -38 -10 0 -16 12 -18 38 -3 29 -7 37 -23 37 -14 0 -19 -7 -19 -27 0 -16 -4 -34 -9 -42 -15 -23 -36 -6 -36 30 0 27 -4 35 -22 37 -19 3 -22 -2 -25 -35 -4 -52 -32 -53 -36 0 -3 29 -7 37 -23 37 -14 0 -19 -7 -19 -27 0 -16 -4 -34 -9 -42 -15 -23 -36 -6 -36 30 0 28 -4 35 -22 37 -22 3 -23 1 -23 -82z m80 -26 c0 -11 -6 -20 -14 -20 -18 0 -29 16 -21 30 11 18 35 11 35 -10z m90 5 c0 -16 -27 -32 -37 -22 -3 4 -3 13 0 22 8 20 37 20 37 0z m80 -5 c0 -11 -6 -20 -14 -20 -18 0 -29 16 -21 30 11 18 35 11 35 -10z m90 5 c0 -16 -27 -32 -37 -22 -3 4 -3 13 0 22 8 20 37 20 37 0z m75 -5 c0 -8 -8 -16 -17 -18 -13 -2 -18 3 -18 18 0 15 5 20 18 18 9 -2 17 -10 17 -18z m79 12 c8 -13 -11 -35 -23 -28 -16 10 -14 36 3 36 8 0 17 -4 20 -8z"/>
 <path d="M715 990 c-7 -12 2 -30 16 -30 12 0 12 27 0 35 -5 3 -12 1 -16 -5z"/>
 <path d="M712 918 c5 -15 28 -18 29 -3 0 6 -7 12 -17 13 -10 3 -15 -1 -12 -10z"/>
 <path d="M770 915 c0 -8 6 -15 13 -15 8 0 14 7 14 15 0 8 -6 15 -14 15 -7 0 -13 -7 -13 -15z"/>
 <path d="M715 860 c-11 -17 5 -32 21 -19 7 6 11 15 8 20 -7 12 -21 11 -29 -1z"/>
 <path d="M4027 782 c-23 -25 -21 -68 3 -92 27 -27 56 -25 86 6 20 19 24 31 19 52 -12 51 -75 71 -108 34z"/>
 <path d="M140 753 c0 -28 -17 -38 -35 -23 -13 11 -15 6 -15 -29 l0 -41 273 2 272 3 0 30 c0 25 -4 30 -22 27 -15 -2 -23 4 -30 25 l-10 28 -7 -28 c-8 -35 -39 -33 -44 2 l-4 24 -12 -24 c-15 -31 -40 -31 -44 0 l-4 24 -12 -24 c-15 -31 -38 -31 -47 1 l-6 25 -12 -28 c-13 -33 -33 -31 -42 4 l-6 24 -11 -27 c-6 -16 -16 -28 -22 -28 -6 0 -16 12 -22 28 l-11 27 -6 -24 c-9 -35 -29 -37 -42 -4 l-12 28 -6 -25 c-4 -14 -13 -25 -21 -25 -8 0 -20 11 -27 25 -12 24 -13 24 -13 3z"/>
 <path d="M710 711 l0 -61 45 0 46 0 -3 58 -3 57 -42 3 -43 3 0 -60z"/>
 <path d="M90 550 l0 -100 273 2 272 3 3 39 c4 50 -8 82 -17 46 -9 -33 -32 -32 -49 3 -15 32 -32 27 -32 -9 0 -17 -5 -24 -20 -24 -11 0 -21 5 -21 10 -1 6 -2 14 -3 20 0 5 -6 14 -13 21 -10 10 -13 9 -17 -2 -13 -44 -17 -50 -28 -47 -7 3 -15 15 -18 29 -8 31 -32 31 -40 -1 -8 -35 -40 -40 -40 -6 0 14 -4 28 -10 31 -6 3 -10 24 -10 46 l0 39 -115 0 -115 0 0 -100z m57 -24 c-2 -6 -12 -11 -22 -11 -10 0 -20 5 -22 11 -2 7 7 12 22 12 15 0 24 -5 22 -12z m57 8 c9 -3 14 -10 11 -15 -7 -10 -35 0 -35 12 0 11 3 11 24 3z m96 -14 c0 -5 -7 -10 -15 -10 -8 0 -15 5 -15 10 0 6 7 10 15 10 8 0 15 -4 15 -10z"/>
 </g>

</svg>