<?xml version="1.0" encoding="UTF-8" standalone="no"?>
<!DOCTYPE svg PUBLIC "-//W3C//DTD SVG 20010904//EN"
              "http://www.w3.org/TR/2001/REC-SVG-20010904/DTD/svg10.dtd">
<svg xmlns="http://www.w3.org/2000/svg" width="66.6808mm" height="90.8129mm" viewBox="0 0 315 429">
  <path xmlns="http://www.w3.org/2000/svg" id="circle1" fill="red" d="M 0.00,12.00            C 0.00,12.00 0.00,343.00 0.00,343.00              0.00,343.00 14.00,343.00 14.00,343.00              52.48,342.94 93.18,324.15 119.99,297.00              171.68,244.63 181.84,164.03 149.25,99.00              140.20,80.95 127.34,63.87 112.00,50.73              101.03,41.33 89.09,32.98 76.00,26.78              58.22,18.36 33.71,12.03 14.00,12.00              14.00,12.00 0.00,12.00 0.00,12.00 Z"/>
    <path xmlns="http://www.w3.org/2000/svg" id="circle2" fill="blue" d="M 0.00,429.00            C 0.00,429.00 287.00,429.00 287.00,429.00              288.70,429.00 292.12,429.14 293.58,428.43              296.78,426.88 298.76,417.41 299.63,414.00              302.98,400.75 305.98,384.65 306.00,371.00              306.00,371.00 306.00,359.00 306.00,359.00              305.94,322.24 290.31,280.29 268.52,251.00              222.78,189.50 143.31,161.03 69.00,179.37              49.75,184.13 33.11,190.81 16.00,200.86              11.98,203.22 2.22,208.85 0.60,213.04              -0.12,214.88 0.00,217.99 0.00,220.00              0.00,220.00 0.00,429.00 0.00,429.00 Z"/>
</svg>
